<?xml version="1.0" encoding="UTF-8" standalone="no"?>
<!DOCTYPE svg PUBLIC "-//W3C//DTD SVG 1.1//EN"
 "http://www.w3.org/Graphics/SVG/1.1/DTD/svg11.dtd">
<!-- Generated by graphviz version 14.1.2 (0)
 -->
<!-- Title: latent_adapter_solution_downstream Pages: 1 -->
<svg width="1589pt" height="655pt"
 viewBox="0.00 0.00 1589.00 655.00" xmlns="http://www.w3.org/2000/svg" xmlns:xlink="http://www.w3.org/1999/xlink">
<g id="graph0" class="graph" transform="scale(1 1) rotate(0) translate(4 650.85)">
<title>latent_adapter_solution_downstream</title>
<polygon fill="white" stroke="none" points="-4,4 -4,-650.85 1584.57,-650.85 1584.57,4 -4,4"/>
<g id="clust1" class="cluster">
<title>cluster_intended</title>
<path fill="none" stroke="#bbbbbb" d="M479,-203.65C479,-203.65 739,-203.65 739,-203.65 745,-203.65 751,-209.65 751,-215.65 751,-215.65 751,-450.56 751,-450.56 751,-456.56 745,-462.56 739,-462.56 739,-462.56 479,-462.56 479,-462.56 473,-462.56 467,-456.56 467,-450.56 467,-450.56 467,-215.65 467,-215.65 467,-209.65 473,-203.65 479,-203.65"/>
<text xml:space="preserve" text-anchor="middle" x="527.12" y="-448.11" font-family="Helvetica,sans-Serif" font-size="11.00">INTENDED EFFECT</text>
</g>
<g id="clust2" class="cluster">
<title>cluster_inv</title>
<path fill="none" stroke="#bbbbbb" d="M20,-85.75C20,-85.75 1125,-85.75 1125,-85.75 1131,-85.75 1137,-91.75 1137,-97.75 1137,-97.75 1137,-155.02 1137,-155.02 1137,-161.02 1131,-167.02 1125,-167.02 1125,-167.02 20,-167.02 20,-167.02 14,-167.02 8,-161.02 8,-155.02 8,-155.02 8,-97.75 8,-97.75 8,-91.75 14,-85.75 20,-85.75"/>
<text xml:space="preserve" text-anchor="middle" x="151.75" y="-152.57" font-family="Helvetica,sans-Serif" font-size="11.00">PRESERVED INVARIANTS &#160;(provably unaffected by s′)</text>
</g>
<g id="clust3" class="cluster">
<title>cluster_indirect</title>
<path fill="none" stroke="#bbbbbb" d="M1162,-8C1162,-8 1543,-8 1543,-8 1549,-8 1555,-14 1555,-20 1555,-20 1555,-155.77 1555,-155.77 1555,-161.77 1549,-167.77 1543,-167.77 1543,-167.77 1162,-167.77 1162,-167.77 1156,-167.77 1150,-161.77 1150,-155.77 1150,-155.77 1150,-20 1150,-20 1150,-14 1156,-8 1162,-8"/>
<text xml:space="preserve" text-anchor="middle" x="1308.38" y="-153.32" font-family="Helvetica,sans-Serif" font-size="11.00">INDIRECT EFFECTS &#160;(mechanism unchanged, inputs shifted)</text>
</g>
<g id="clust4" class="cluster">
<title>cluster_risk</title>
<path fill="none" stroke="#bbbbbb" d="M771,-197.52C771,-197.52 1529,-197.52 1529,-197.52 1535,-197.52 1541,-203.52 1541,-209.52 1541,-209.52 1541,-269.79 1541,-269.79 1541,-275.79 1535,-281.79 1529,-281.79 1529,-281.79 771,-281.79 771,-281.79 765,-281.79 759,-275.79 759,-269.79 759,-269.79 759,-209.52 759,-209.52 759,-203.52 765,-197.52 771,-197.52"/>
<text xml:space="preserve" text-anchor="middle" x="869" y="-267.34" font-family="Helvetica,sans-Serif" font-size="11.00">RISKS / FAILURE MODES &#160;(add a guard)</text>
</g>
<!-- blackbox -->
<g id="node1" class="node">
<title>blackbox</title>
<polygon fill="#2c3e50" stroke="black" points="895.89,-640.85 614.11,-640.85 610.11,-636.85 610.11,-592.58 891.89,-592.58 895.89,-596.58 895.89,-640.85"/>
<polyline fill="none" stroke="black" points="891.89,-636.85 610.11,-636.85"/>
<polyline fill="none" stroke="black" points="891.89,-636.85 891.89,-592.58"/>
<polyline fill="none" stroke="black" points="891.89,-636.85 895.89,-640.85"/>
<text xml:space="preserve" text-anchor="middle" x="753" y="-625.59" font-family="Helvetica,sans-Serif" font-size="10.00" fill="white">UPSTREAM &#160;(BLACK BOX — assumed correct)</text>
<text xml:space="preserve" text-anchor="middle" x="753" y="-614.34" font-family="Helvetica,sans-Serif" font-size="10.00" fill="white">inner.featurize(structure) → encoder / trunk</text>
<text xml:space="preserve" text-anchor="middle" x="753" y="-601.59" font-family="Helvetica,sans-Serif" font-size="10.00" fill="white">→ conditioning with single representation &#160;s &#160;&#160;[B, tokens, d_s]</text>
</g>
<!-- inject -->
<g id="node2" class="node">
<title>inject</title>
<polygon fill="#d5f5e3" stroke="#1e8449" stroke-width="2" points="862.51,-536.83 643.49,-536.83 643.49,-491.56 862.51,-491.56 862.51,-536.83"/>
<text xml:space="preserve" text-anchor="middle" x="753" y="-521.57" font-family="Helvetica,sans-Serif" font-size="10.00">INJECTION &#160;(the only change)</text>
<text xml:space="preserve" text-anchor="middle" x="753" y="-510.32" font-family="Helvetica,sans-Serif" font-size="10.00">s′ = k·s + b &#160;&#160;(identical shape / dtype / device)</text>
<text xml:space="preserve" text-anchor="middle" x="753" y="-499.07" font-family="Helvetica,sans-Serif" font-size="10.00">detach() in sampling mode</text>
</g>
<!-- blackbox&#45;&gt;inject -->
<g id="edge1" class="edge">
<title>blackbox&#45;&gt;inject</title>
<path fill="none" stroke="#555555" d="M753,-592.15C753,-579.27 753,-563.11 753,-548.92"/>
<polygon fill="#555555" stroke="#555555" points="756.5,-549.09 753,-539.09 749.5,-549.09 756.5,-549.09"/>
<text xml:space="preserve" text-anchor="middle" x="755.25" y="-558.03" font-family="Helvetica,sans-Serif" font-size="9.00">s</text>
</g>
<!-- step -->
<g id="node3" class="node">
<title>step</title>
<polygon fill="#d5f5e3" stroke="#1e8449" points="742.89,-357.56 529.11,-357.56 529.11,-310.79 742.89,-310.79 742.89,-357.56"/>
<text xml:space="preserve" text-anchor="middle" x="636" y="-342.3" font-family="Helvetica,sans-Serif" font-size="10.00">model.step(): diffusion forward</text>
<text xml:space="preserve" text-anchor="middle" x="636" y="-331.05" font-family="Helvetica,sans-Serif" font-size="10.00">uses s_trunk=cond.s′ &#160;(boltz/wrapper.py:874)</text>
<text xml:space="preserve" text-anchor="middle" x="636" y="-319.8" font-family="Helvetica,sans-Serif" font-size="10.00">→ x̂₀ changes</text>
</g>
<!-- inject&#45;&gt;step -->
<g id="edge5" class="edge">
<title>inject&#45;&gt;step</title>
<path fill="none" stroke="#555555" stroke-width="2" d="M760.91,-490.69C768.05,-466.15 775.06,-426.65 758,-398.56 749.31,-384.25 736.23,-373.03 721.81,-364.27"/>
<polygon fill="#555555" stroke="#555555" stroke-width="2" points="723.67,-361.3 713.22,-359.51 720.27,-367.42 723.67,-361.3"/>
<text xml:space="preserve" text-anchor="middle" x="823.34" y="-412.88" font-family="Helvetica,sans-Serif" font-size="9.00">s′ via features.conditioning</text>
</g>
<!-- reuse -->
<g id="node4" class="node">
<title>reuse</title>
<polygon fill="#d5f5e3" stroke="#1e8449" points="743.26,-434.56 474.74,-434.56 474.74,-398.56 743.26,-398.56 743.26,-434.56"/>
<text xml:space="preserve" text-anchor="middle" x="609" y="-419.06" font-family="Helvetica,sans-Serif" font-size="10.00">cached once, reused across all 200 steps</text>
<text xml:space="preserve" text-anchor="middle" x="609" y="-407.81" font-family="Helvetica,sans-Serif" font-size="10.00">→ a CONSTANT bias that compounds over the trajectory</text>
</g>
<!-- inject&#45;&gt;reuse -->
<g id="edge6" class="edge">
<title>inject&#45;&gt;reuse</title>
<path fill="none" stroke="#555555" stroke-dasharray="1,5" d="M719.24,-490.77C696.69,-475.8 667.09,-456.14 644.24,-440.97"/>
<polygon fill="#555555" stroke="#555555" points="646.43,-438.22 636.16,-435.6 642.56,-444.05 646.43,-438.22"/>
</g>
<!-- shapes -->
<g id="node6" class="node">
<title>shapes</title>
<polygon fill="#eeeeee" stroke="#888888" points="500.51,-134.38 263.49,-134.38 263.49,-98.38 500.51,-98.38 500.51,-134.38"/>
<text xml:space="preserve" text-anchor="middle" x="382" y="-118.88" font-family="Helvetica,sans-Serif" font-size="10.00">tensor shapes / atom counts / x_init</text>
<text xml:space="preserve" text-anchor="middle" x="382" y="-107.63" font-family="Helvetica,sans-Serif" font-size="10.00">(s is [B,tokens,d], not coords → no shape change)</text>
</g>
<!-- inject&#45;&gt;shapes -->
<g id="edge7" class="edge">
<title>inject&#45;&gt;shapes</title>
<path fill="none" stroke="#555555" stroke-dasharray="5,2" d="M642.49,-504.85C537.64,-493.8 396,-469.29 396,-417.56 396,-417.56 396,-417.56 396,-228.65 396,-200.27 391.46,-168.12 387.55,-145.71"/>
<polygon fill="none" stroke="#555555" points="391.04,-145.35 385.8,-136.14 384.15,-146.6 391.04,-145.35"/>
<text xml:space="preserve" text-anchor="middle" x="413.25" y="-330.5" font-family="Helvetica,sans-Serif" font-size="9.00">no effect</text>
</g>
<!-- recon -->
<g id="node7" class="node">
<title>recon</title>
<polygon fill="#eeeeee" stroke="#888888" points="234.14,-139.02 15.86,-139.02 15.86,-93.75 234.14,-93.75 234.14,-139.02"/>
<text xml:space="preserve" text-anchor="middle" x="125" y="-123.76" font-family="Helvetica,sans-Serif" font-size="10.00">process_structure_to_trajectory_input</text>
<text xml:space="preserve" text-anchor="middle" x="125" y="-112.51" font-family="Helvetica,sans-Serif" font-size="10.00">reconciler · model_atom_array · RewardInputs</text>
<text xml:space="preserve" text-anchor="middle" x="125" y="-101.26" font-family="Helvetica,sans-Serif" font-size="10.00">(derive from atom arrays, NOT s)</text>
</g>
<!-- inject&#45;&gt;recon -->
<g id="edge8" class="edge">
<title>inject&#45;&gt;recon</title>
<path fill="none" stroke="#555555" stroke-dasharray="5,2" d="M642.51,-504.82C482.97,-491.21 207,-461.35 207,-417.56 207,-417.56 207,-417.56 207,-228.65 207,-196.45 184.47,-167.44 163.03,-147.12"/>
<polygon fill="none" stroke="#555555" points="165.49,-144.62 155.73,-140.51 160.8,-149.82 165.49,-144.62"/>
<text xml:space="preserve" text-anchor="middle" x="224.25" y="-330.5" font-family="Helvetica,sans-Serif" font-size="9.00">no effect</text>
</g>
<!-- nan -->
<g id="node14" class="node">
<title>nan</title>
<polygon fill="#f5b7b1" stroke="#c0392b" stroke-width="2" points="1273.77,-253.79 1032.23,-253.79 1032.23,-205.52 1273.77,-205.52 1273.77,-253.79"/>
<text xml:space="preserve" text-anchor="middle" x="1153" y="-238.53" font-family="Helvetica,sans-Serif" font-size="10.00">OOD s′ (large k or b) → unstable x̂₀ / NaN</text>
<text xml:space="preserve" text-anchor="middle" x="1153" y="-225.78" font-family="Helvetica,sans-Serif" font-size="10.00">propagates to reward → whole trajectory</text>
<text xml:space="preserve" text-anchor="middle" x="1153" y="-213.03" font-family="Helvetica,sans-Serif" font-size="10.00">GUARD: clamp |Δ|, assert_no_nans on step output</text>
</g>
<!-- inject&#45;&gt;nan -->
<g id="edge11" class="edge">
<title>inject&#45;&gt;nan</title>
<path fill="none" stroke="#c0392b" d="M825.33,-490.61C845.33,-483.01 866.58,-473.6 885,-462.56 981.59,-404.68 1077.05,-311.04 1123.62,-262.35"/>
<polygon fill="#c0392b" stroke="#c0392b" points="1126.08,-264.84 1130.43,-255.18 1121.01,-260.02 1126.08,-264.84"/>
</g>
<!-- leak -->
<g id="node15" class="node">
<title>leak</title>
<polygon fill="#f5b7b1" stroke="#c0392b" stroke-width="2" points="1533.14,-253.04 1302.86,-253.04 1302.86,-206.27 1533.14,-206.27 1533.14,-253.04"/>
<text xml:space="preserve" text-anchor="middle" x="1418" y="-237.78" font-family="Helvetica,sans-Serif" font-size="10.00">training_adapter=True during sampling</text>
<text xml:space="preserve" text-anchor="middle" x="1418" y="-226.53" font-family="Helvetica,sans-Serif" font-size="10.00">→ autograd leak (Boltz step does NOT detach)</text>
<text xml:space="preserve" text-anchor="middle" x="1418" y="-213.78" font-family="Helvetica,sans-Serif" font-size="10.00">GUARD: detach&#45;in&#45;sampling (already in wrapper)</text>
</g>
<!-- inject&#45;&gt;leak -->
<g id="edge12" class="edge">
<title>inject&#45;&gt;leak</title>
<path fill="none" stroke="#c0392b" stroke-dasharray="5,2" d="M859.37,-490.57C889.7,-482.93 922.51,-473.51 952,-462.56 1110.59,-403.69 1286.41,-306.92 1369.47,-259.15"/>
<polygon fill="#c0392b" stroke="#c0392b" points="1371.15,-262.22 1378.06,-254.19 1367.65,-256.16 1371.15,-262.22"/>
</g>
<!-- xout -->
<g id="node5" class="node">
<title>xout</title>
<polygon fill="#d5f5e3" stroke="#1e8449" points="738.01,-247.65 557.99,-247.65 557.99,-211.65 738.01,-211.65 738.01,-247.65"/>
<text xml:space="preserve" text-anchor="middle" x="648" y="-231.4" font-family="Helvetica,sans-Serif" font-size="10.00">sampled coordinates / ensemble shift</text>
<text xml:space="preserve" text-anchor="middle" x="648" y="-220.15" font-family="Helvetica,sans-Serif" font-size="10.00">(the steering we want)</text>
</g>
<!-- step&#45;&gt;xout -->
<g id="edge2" class="edge">
<title>step&#45;&gt;xout</title>
<path fill="none" stroke="#555555" d="M638.66,-310.42C640.44,-295.23 642.79,-275.15 644.69,-258.93"/>
<polygon fill="#555555" stroke="#555555" points="648.12,-259.77 645.8,-249.43 641.16,-258.96 648.12,-259.77"/>
</g>
<!-- collapse -->
<g id="node16" class="node">
<title>collapse</title>
<polygon fill="#f5b7b1" stroke="#c0392b" stroke-width="2" points="1002.76,-253.04 767.24,-253.04 767.24,-206.27 1002.76,-206.27 1002.76,-253.04"/>
<text xml:space="preserve" text-anchor="middle" x="885" y="-237.78" font-family="Helvetica,sans-Serif" font-size="10.00">uniform bias across ensemble dim</text>
<text xml:space="preserve" text-anchor="middle" x="885" y="-226.53" font-family="Helvetica,sans-Serif" font-size="10.00">→ diversity collapse (loses flexibility)</text>
<text xml:space="preserve" text-anchor="middle" x="885" y="-213.78" font-family="Helvetica,sans-Serif" font-size="10.00">GUARD: per&#45;member / noise&#45;conditioned injection</text>
</g>
<!-- step&#45;&gt;collapse -->
<g id="edge13" class="edge">
<title>step&#45;&gt;collapse</title>
<path fill="none" stroke="#c0392b" stroke-dasharray="1,5" d="M691.57,-310.3C729.33,-294.75 779.45,-274.11 819.21,-257.74"/>
<polygon fill="#c0392b" stroke="#c0392b" points="820.29,-261.08 828.2,-254.04 817.62,-254.61 820.29,-261.08"/>
</g>
<!-- reuse&#45;&gt;step -->
<g id="edge3" class="edge">
<title>reuse&#45;&gt;step</title>
<path fill="none" stroke="#555555" stroke-dasharray="1,5" d="M614.86,-398.12C617.77,-389.44 621.4,-378.64 624.82,-368.46"/>
<polygon fill="#555555" stroke="#555555" points="628.06,-369.81 627.93,-359.22 621.42,-367.58 628.06,-369.81"/>
</g>
<!-- out_shape -->
<g id="node10" class="node">
<title>out_shape</title>
<polygon fill="#eeeeee" stroke="#888888" points="1128.77,-134.38 911.24,-134.38 911.24,-98.38 1128.77,-98.38 1128.77,-134.38"/>
<text xml:space="preserve" text-anchor="middle" x="1020" y="-118.13" font-family="Helvetica,sans-Serif" font-size="10.00">GuidanceOutput / trajectory / save_everything</text>
<text xml:space="preserve" text-anchor="middle" x="1020" y="-106.88" font-family="Helvetica,sans-Serif" font-size="10.00">SAME shapes, different values</text>
</g>
<!-- xout&#45;&gt;out_shape -->
<g id="edge14" class="edge">
<title>xout&#45;&gt;out_shape</title>
<path fill="none" stroke="#555555" stroke-dasharray="5,2" d="M703.07,-211.18C718.8,-206.46 736.01,-201.55 752,-197.52 815.8,-181.46 834.07,-186.93 897,-167.77 922.44,-160.02 949.9,-149.04 972.41,-139.3"/>
<polygon fill="none" stroke="#555555" points="973.57,-142.62 981.32,-135.4 970.76,-136.21 973.57,-142.62"/>
</g>
<!-- reward -->
<g id="node11" class="node">
<title>reward</title>
<polygon fill="#fdebd0" stroke="#b9770e" points="1356.39,-139.77 1157.61,-139.77 1157.61,-93 1356.39,-93 1356.39,-139.77"/>
<text xml:space="preserve" text-anchor="middle" x="1257" y="-124.51" font-family="Helvetica,sans-Serif" font-size="10.00">reward on COORDS, grad on coords only</text>
<text xml:space="preserve" text-anchor="middle" x="1257" y="-113.26" font-family="Helvetica,sans-Serif" font-size="10.00">(cond detached) → structurally identical,</text>
<text xml:space="preserve" text-anchor="middle" x="1257" y="-100.51" font-family="Helvetica,sans-Serif" font-size="10.00">but evaluated on shifted x̂₀</text>
</g>
<!-- xout&#45;&gt;reward -->
<g id="edge9" class="edge">
<title>xout&#45;&gt;reward</title>
<path fill="none" stroke="#555555" d="M698.25,-211.24C715.14,-206.02 734.21,-200.82 752,-197.52 837.9,-181.59 1059.3,-189.18 1144,-167.77 1164.55,-162.58 1186.05,-153.9 1204.71,-145.2"/>
<polygon fill="#555555" stroke="#555555" points="1206.18,-148.37 1213.68,-140.89 1203.15,-142.06 1206.18,-148.37"/>
<text xml:space="preserve" text-anchor="middle" x="1122.46" y="-176.97" font-family="Helvetica,sans-Serif" font-size="9.00">shifted coords</text>
</g>
<!-- bf -->
<g id="node8" class="node">
<title>bf</title>
<polygon fill="#eeeeee" stroke="#888888" points="700.14,-134.38 529.86,-134.38 529.86,-98.38 700.14,-98.38 700.14,-134.38"/>
<text xml:space="preserve" text-anchor="middle" x="615" y="-118.13" font-family="Helvetica,sans-Serif" font-size="10.00">b_factors / occupancies / elements</text>
<text xml:space="preserve" text-anchor="middle" x="615" y="-106.88" font-family="Helvetica,sans-Serif" font-size="10.00">(from atom arrays)</text>
</g>
<!-- det -->
<g id="node9" class="node">
<title>det</title>
<polygon fill="#eeeeee" stroke="#888888" points="882.51,-134.38 729.49,-134.38 729.49,-98.38 882.51,-98.38 882.51,-134.38"/>
<text xml:space="preserve" text-anchor="middle" x="806" y="-118.13" font-family="Helvetica,sans-Serif" font-size="10.00">determinism / seeding</text>
<text xml:space="preserve" text-anchor="middle" x="806" y="-106.88" font-family="Helvetica,sans-Serif" font-size="10.00">(injection adds no randomness)</text>
</g>
<!-- guid -->
<g id="node12" class="node">
<title>guid</title>
<polygon fill="#fdebd0" stroke="#b9770e" points="1330.14,-52 1183.86,-52 1183.86,-16 1330.14,-16 1330.14,-52"/>
<text xml:space="preserve" text-anchor="middle" x="1257" y="-36.5" font-family="Helvetica,sans-Serif" font-size="10.00">guidance / guided Euler delta</text>
<text xml:space="preserve" text-anchor="middle" x="1257" y="-25.25" font-family="Helvetica,sans-Serif" font-size="10.00">(edm.py) → different direction</text>
</g>
<!-- reward&#45;&gt;guid -->
<g id="edge4" class="edge">
<title>reward&#45;&gt;guid</title>
<path fill="none" stroke="#555555" d="M1257,-92.56C1257,-83.56 1257,-73.11 1257,-63.6"/>
<polygon fill="#555555" stroke="#555555" points="1260.5,-63.76 1257,-53.76 1253.5,-63.76 1260.5,-63.76"/>
</g>
<!-- guid&#45;&gt;step -->
<g id="edge10" class="edge">
<title>guid&#45;&gt;step</title>
<path fill="none" stroke="#555555" stroke-dasharray="1,5" d="M1330.37,-36.69C1410.97,-40.28 1532.89,-51.4 1562,-85.75 1585.57,-113.56 1587.62,-141.84 1562,-167.77 1555.4,-174.45 895.63,-175.42 886.25,-175.77 848.06,-177.21 569.15,-169.66 543,-197.52 517.37,-224.83 523.97,-249.53 543,-281.79 548.11,-290.45 555.25,-297.75 563.34,-303.88"/>
<polygon fill="#555555" stroke="#555555" points="561.32,-306.73 571.56,-309.46 565.25,-300.94 561.32,-306.73"/>
<text xml:space="preserve" text-anchor="middle" x="904.62" y="-176.97" font-family="Helvetica,sans-Serif" font-size="9.00">next step</text>
</g>
<!-- fk -->
<g id="node13" class="node">
<title>fk</title>
<polygon fill="#fdebd0" stroke="#b9770e" points="1547.02,-134.38 1384.98,-134.38 1384.98,-98.38 1547.02,-98.38 1547.02,-134.38"/>
<text xml:space="preserve" text-anchor="middle" x="1466" y="-118.88" font-family="Helvetica,sans-Serif" font-size="10.00">FK steering: resampling weights</text>
<text xml:space="preserve" text-anchor="middle" x="1466" y="-107.63" font-family="Helvetica,sans-Serif" font-size="10.00">→ particle distribution reweighted</text>
</g>
<!-- legend -->
<g id="node17" class="node">
<title>legend</title>
<polygon fill="#fef9e7" stroke="black" points="1156.89,-646.85 925.11,-646.85 925.11,-586.58 1162.89,-586.58 1162.89,-640.85 1156.89,-646.85"/>
<polyline fill="none" stroke="black" points="1156.89,-646.85 1156.89,-640.85"/>
<polyline fill="none" stroke="black" points="1162.89,-640.85 1156.89,-640.85"/>
<text xml:space="preserve" text-anchor="middle" x="1044" y="-632.54" font-family="Helvetica,sans-Serif" font-size="9.00">IMPACT LEGEND</text>
<text xml:space="preserve" text-anchor="middle" x="1044" y="-622.79" font-family="Helvetica,sans-Serif" font-size="9.00">green &#160;INTENDED — desired steering</text>
<text xml:space="preserve" text-anchor="middle" x="1044" y="-613.04" font-family="Helvetica,sans-Serif" font-size="9.00">gray &#160;&#160;INVARIANT — provably safe (no s dependence)</text>
<text xml:space="preserve" text-anchor="middle" x="1044" y="-603.29" font-family="Helvetica,sans-Serif" font-size="9.00">orange INDIRECT — shifted inputs, same mechanism</text>
<text xml:space="preserve" text-anchor="middle" x="1044" y="-593.54" font-family="Helvetica,sans-Serif" font-size="9.00">red &#160;&#160;&#160;RISK — needs a guard</text>
</g>
</g>
</svg>
